<?xml version="1.0" encoding="utf-8"?>
<!-- Generator: Adobe Illustrator 16.0.2, SVG Export Plug-In . SVG Version: 6.00 Build 0)  -->
<!DOCTYPE svg PUBLIC "-//W3C//DTD SVG 1.1//EN" "http://www.w3.org/Graphics/SVG/1.1/DTD/svg11.dtd">
<svg version="1.1" id="Layer_1" xmlns="http://www.w3.org/2000/svg" xmlns:xlink="http://www.w3.org/1999/xlink" x="0px" y="0px"
	 width="463px" height="155px" viewBox="0 0 463 155" enable-background="new 0 0 463 155" xml:space="preserve">
<g>
	<g>
		<path fill="#FFF" d="M54.33,17.25c9.74-6.56,21.4-10.1,33.11-10.52c17.48-1.27,35.81,4,48.8,16.06
			c3.64,3.5,7.4,7.04,9.84,11.52c-11.24-9.89-25.65-16.49-40.68-17.32c-16.94-0.64-33.75,6.84-45.43,18.96
			C40.6,55.36,38.7,89.54,56.41,110.61c10.97,13.32,28.03,20.84,45.09,21.87c17.82,0.78,35.12-7.86,47.03-20.82
			c-5.02,10.02-13.51,18.21-23.26,23.66c-15.59,8.78-34.68,9.7-51.74,5.2c-15.62-4.07-29.51-13.89-38.95-26.94
			c-5.58-7.67-9.73-16.61-10.72-26.13c-6.33-3.57-11.99-8.17-18.14-12.01c5.75-4.37,12.07-7.93,18.05-11.98
			C28.23,45.24,38.6,27.86,54.33,17.25z"/>
		<path fill="#FFF" d="M395.4,35.67c3.44-1.77,5.78-4.95,8.06-7.96c1.85,3.46,5.59,5.62,7.8,8.48c-3.23,2.53-6.06,5.57-7.85,9.28
			C401.41,41.66,398.23,38.8,395.4,35.67z"/>
		<path fill="#FFF" d="M194.94,36.88c3.9-4.43,10.14-5.37,15.72-5.53c-0.49,0.33-1.47,1-1.96,1.34
			c-2.42,1.88-4.72,4.45-4.93,7.65c-0.31,4.38,0.07,8.78-0.24,13.16c0.36,14.01-0.07,28.03,0.12,42.05c0.18,2.9-0.56,6.12,0.91,8.78
			c1.78,1.84,4.37,1.22,6.59,0.83c-4.24,3.9-8.23,8.08-12.43,12.04c-2.89-3.8-5.69-7.78-9.54-10.68c-0.09-0.29-0.26-0.87-0.35-1.16
			c1.52-0.69,2.76-1.96,2.46-3.76c-0.02-16.03,0.05-32.07-0.03-48.1c0.06-6.26-3.36-11.69-6.69-16.71c0.31-0.07,0.94-0.2,1.26-0.26
			c1.59,3.13,3.29,6.21,4.78,9.4C191.61,42.74,192.51,39.32,194.94,36.88z"/>
		<path fill="#FFF" d="M154.5,67.75c10.81-6.78,14.24-20.05,17.41-31.59c0.86,8.22,0.2,16.52,0.35,24.77
			c3.48,0.11,6.96,0.05,10.44,0.13c-0.02,2.39-0.03,4.77-0.02,7.16c-3.49,0.11-6.97,0.08-10.45,0.08
			c-0.05,9.73-0.02,19.46-0.02,29.19c-0.13,1.82,0.51,3.52,1.12,5.2c2.36,0.86,4.84,0.68,7.23,0.03c-4.29,4.87-8.44,9.9-12.91,14.61
			c-2.02-3.8-4.83-7.08-7.83-10.13c-1.01-0.57-2.03-1.15-3.04-1.71c1.26-1.81,3.17-3.51,2.93-5.94c0.03-10.51-0.02-21.02,0.02-31.52
			C157.99,67.93,156.25,67.86,154.5,67.75z"/>
		<path fill="#FFF" d="M248.71,62.77c2.58-6.79,7.61-12.44,12.97-17.21c-0.13,2.45,0.62,5.19-0.83,7.38
			c-0.98,1.66-1.63,3.64-1.05,5.56c0.88,3.53,5.38,5.15,5.41,9.01c0.05,9.38,0.03,18.76-0.01,28.14c2.61,1.77,5.2,3.6,7.5,5.79
			c1.12,1.5,3.21,0.64,4.16-0.58c3.93-4.11,7.15-9.56,6.94-15.4c-1.53-9.89-7.34-18.31-11.26-27.3c8.9-2.47,17.66-5.69,26.74-7.36
			c-4.48,3.78-8.17,8.38-12.27,12.56c7.64,7.29,7.9,19.69,3.67,28.81c-4.98,9.69-14.25,16-22.22,23.03
			c-5.17-4.88-10.53-9.85-17.21-12.58c1-0.67,2.01-1.35,3.01-2.02c0.02-8.68,0.1-17.37-0.02-26.05
			C253.92,69.9,247.47,67.79,248.71,62.77z"/>
		<path fill="#FFF" d="M402.83,49.27c3.48,2.81,6.29,6.36,9.63,9.34c-0.83,1.67-2.88,2.77-2.7,4.88
			c-0.05,11.32-0.12,22.65,0.02,33.97c-0.33,3.13,3.32,3.64,5.66,3.42c-4.06,4.04-7.86,8.33-11.89,12.4
			c-3.1-3.65-6.75-7.67-6.72-12.76c-0.01-12.01-0.01-24.02,0.01-36.03c0.07-1.57-0.49-3.05-0.93-4.53
			c-0.63-0.29-1.88-0.89-2.51-1.19C396.61,55.67,399.77,52.52,402.83,49.27z"/>
		<g>
			<path fill="#FFF" d="M80.29,59.43c4.59-2.15,8.29-5.69,12.26-8.77l0.77,0.06c4.66,4.64,9.44,9.58,15.84,11.74
				c-2.11,1.34-3.29,3.55-3.98,5.87c0.05,9.74-0.01,19.47,0.01,29.2c-0.1,2.17,0.96,4.63,3.14,5.37c1.21-0.15,2.37-0.48,3.49-0.99
				c-3.64,4.25-8.09,7.77-11.31,12.39c-4.04-3.59-7.07-8.27-8.34-13.56c-4.96,4.49-9.61,9.31-14.57,13.8
				c-2.2-2.24-4.92-4.14-6.32-7.03c-1.99-6.02-0.76-12.45-1.25-18.65c-3.45-2.25-7.37-3.73-10.69-6.22
				c3.69-1.52,7.19-3.44,10.8-5.11c0.12-4.28-0.31-8.84,1.5-12.84C73.82,62.01,77.27,60.91,80.29,59.43z M82.74,64.46
				c0.1,12-0.07,24,0.07,35.99c-0.19,2.28,2.64,3.55,4.49,2.58c2.07-1.07,3.87-2.55,5.51-4.17c-0.31-10.5-0.03-21-0.14-31.49
				c-3-3-6.47-5.59-9.32-8.79C82.65,60.46,82.73,62.49,82.74,64.46z"/>
		</g>
		<g>
			<path fill="#FFF" d="M225.13,57.2c4.19-2.25,8.22-4.82,12.57-6.77c2.97,6.79,7.37,12.94,9.79,19.95
				c-7.1,5.44-13.66,11.57-20.74,17.04c1.56,6.09,5.14,12.79,11.87,14.13c3.22,1.1,6.13-1.1,8.9-2.4
				c-5.12,4.62-10.32,9.17-14.93,14.32c-0.97,1.67-2.76,0.44-3.97-0.2c-6.38-3.63-12.23-9.37-13.72-16.82
				c-0.74-2.94-0.57-6-0.51-9.01c-2.18-2.38-5.32-3.81-7.01-6.6c2.33-1.36,4.58-2.86,6.83-4.36c0.36-3.99,0.59-8.14,2.35-11.82
				C218.23,61.06,221.95,59.23,225.13,57.2z M226.93,57.35c-0.09,9.05-0.26,18.13,0.09,27.19c3.35-2.77,6.67-5.56,10.14-8.18
				c-2.46-6.75-5.82-13.14-8.45-19.83C228.27,56.73,227.37,57.14,226.93,57.35z"/>
		</g>
		<g>
			<path fill="#FFF" d="M320.5,50.03l0.97,0.1c4.79,5.16,10.24,10.28,17.17,12.31c-2.99,0.96-4.89,3.87-4.77,6.97
				c-0.04,9.35-0.01,18.69-0.01,28.04c-0.12,1.73,0.6,3.31,1.42,4.8c2.1,0.26,4.08-0.52,6.04-1.18c-3.01,3.4-6.54,6.3-9.4,9.83
				c-1.16,1.17-2.02,2.73-3.5,3.54c-3.07-2.53-5.8-5.68-7.16-9.47c-0.5-1.14-0.68-2.5-1.71-3.32c-4.42,4.48-9.13,8.66-13.28,13.4
				c-4.3-2.43-8.19-6.67-8.3-11.88c-0.39-7.54-0.07-15.1-0.17-22.64c0.1-5.39-0.44-10.97,1.41-16.15c2.04-1.82,4.33-3.34,6.87-4.36
				C311.58,57.82,316.07,53.86,320.5,50.03z M311.14,59.28c-0.12,14.01-0.23,28.04,0.05,42.04c2.64,3.81,6.46-0.34,8.87-2.2
				c0.06-10.76,0.19-21.53-0.08-32.29C316.57,64.88,314.09,61.79,311.14,59.28z"/>
		</g>
		<path fill="#FFF" d="M342.37,61.61c3.86-3.83,7.16-8.17,11.08-11.94c5.17,3.04,8,8.83,7.83,14.77
			c5.84-4.53,10.92-10.2,17.29-13.96c2.05,4.09,5.66,7.04,9,10.03c-2.58,1.82-4.17,4.76-3.9,7.97c0.14,9.33,0.19,18.67,0.16,28.01
			c0.21,1.56-0.18,3.46,1.05,4.66c1.15,1.42,3.14,0.62,4.69,0.82c-3.83,3.84-7.63,7.72-11.3,11.72c-4.21-3.85-8.03-9.22-7.51-15.21
			c0.03-10.32,0.01-20.64,0.03-30.96c0.1-1.5-0.42-2.89-0.99-4.23c-0.78-0.39-1.56-0.78-2.33-1.18c-2.22,1.61-4.3,3.4-6.33,5.25
			c0.14,10.75-0.02,21.52,0.06,32.27c-0.21,1.62,1.35,2.57,2.16,3.75c-4.15,2.02-6.38,6.19-8.8,9.88c-2.58-3.94-5.58-7.81-9.99-9.81
			c1.82-1.05,3.99-2.48,3.62-4.91c0.07-10.04,0.1-20.09-0.02-30.12C348.17,65.21,346.16,61.1,342.37,61.61z"/>
		<g>
			<path fill="#FFF" d="M432.59,57.61c3.51-2.07,6.27-5.14,9.73-7.25c4.5,4.96,9.51,9.77,15.92,12.12
				c-2.87,1.58-3.93,4.9-3.88,8.01c0.02,9.05-0.06,18.11,0.04,27.16c-0.06,1.94,0.96,3.61,2.03,5.15c1.32-0.03,2.64-0.06,3.98-0.09
				c-3.9,3.62-7.68,7.39-10.93,11.62c-2.72-2.91-5.55-5.94-6.96-9.73c-0.65-1.25-0.46-3.07-1.9-3.75
				c-4.09,4.74-8.95,8.76-13.15,13.39c-4.66-1.72-8.15-6.76-8.17-11.82c-0.14-9.97-0.03-19.95-0.05-29.92
				c0.23-3.17,0.09-7.05,2.83-9.24C425.27,60.82,429.31,59.9,432.59,57.61z M431.79,71.48c0.22,10.13-0.42,20.36,0.31,30.44
				c3.11,3.65,7.13-1.05,9.75-3.08c-0.14-10.57-0.12-21.14-0.02-31.71c-3.61-2.4-6.5-5.66-9.64-8.6
				C431.44,62.81,431.89,67.16,431.79,71.48z"/>
		</g>
		<path fill="#FFF" d="M142.59,58.11c3.89-0.47,6.42-3.75,8.75-6.55c-0.4,6.52-2.19,13.41-6.89,18.19c0,0-1.313,1.553-1.89,1.89
			c-6.455,3.771-14.44-2.07-18.24-8.09c-3.89,1.5-4.18,6.52-3.39,10.03c0.9,5.32,5.53,10.83,11.43,9.67
			c6.21-0.82,8.96-7.12,11.99-11.78c0.65,2,2.74,2.72,4.1,4.11c4.53,4.29,5.59,11.36,3.4,17.08c-3.45,9.44-9.93,17.42-16.88,24.54
			c-6.48-3.48-13.57-9.08-21.35-5.97c1.87-4.83,4.44-9.38,6-14.34c4.69,0.61,9.43,1.6,13.63,3.87c3.4,1.58,6.27,4.05,9.61,5.75
			c2.02-5.7,1.85-12.26-1.07-17.62c-1.85-3.23-5.71-5.48-9.46-4.4c-5.89,1.64-9.06,7.36-11.8,12.35c-0.2-0.54-0.58-1.63-0.77-2.17
			c-4.05-3.2-7.83-7.69-7.68-13.15c-0.31-7.77,5.6-13.7,10.94-18.52c3.42-2.85,5.97-6.51,8.31-10.25
			C133.87,56.24,138.16,58.84,142.59,58.11z"/>
		<path fill="#FFF" d="M322.07,130.1c2.2-2.65,5.61-3.91,8.65-5.35c2.42,0.78,4.15,2.99,6.63,3.75
			c-1.85,0.89-3.26,2.39-4.67,3.83c-2.01-1.39-4-2.81-6.11-4.01c-0.06,3.09,3.36,4.19,5.32,5.93c2.91,2.23,7.58,4.77,6.14,9.21
			c-2.51,3.24-6.18,5.34-9.43,7.76c-2.22-1.61-4.67-2.86-7.22-3.87c1.03-1.74,2.15-3.7,4.11-4.5c2.55,0.95,4.66,3.05,7.51,3.12
			c0.45-3.98-3.86-5.53-6.34-7.74C324.23,136.3,320.53,133.69,322.07,130.1z"/>
		<path fill="#FFF" d="M200.05,127.44c3.5-0.79,6.9-2.1,10.49-2.41c2.99-0.14,5.04,2.32,6.24,4.75c-1.91,0.54-3.74,1.3-5.51,2.21
			c-1.23-1.56-1.61-4.22-3.92-4.53c0.54,5.32,0.03,10.67,0.27,16c0.02,1.64-0.57,3.19-0.89,4.77c3.45-1.98,7.04-3.94,11.09-4.23
			c0.02,2.02,0.03,4.04,0.06,6.06c-6.28-0.07-12.57-0.06-18.85,0.03c2.86-3.23,1.9-7.68,2.05-11.6
			C200.86,134.81,201.75,130.87,200.05,127.44z"/>
		<g>
			<path fill="#FFF" d="M253.88,127.37c2.13-0.2,4.26-0.5,6.39-0.78c0.07,6-0.03,12.01,0.02,18.01c-0.13,1.4,0.66,2.62,1.09,3.9
				c-1,0.85-2.01,1.71-3,2.57c-1.2-0.99-2.39-1.98-3.56-2.99c-1.09,1.01-2.18,2.01-3.26,3.01c-6.43-4.66-6.01-14.71,0.08-19.45
				c1.02-1.6,2.54,0.15,3.52,0.82C255.18,130.66,254.81,128.92,253.88,127.37z M252.33,133.55c-1.96,3.6-1.59,7.98,0.83,11.25
				c0.4,0.39,1.2,1.16,1.59,1.55c0.73-3.25,0.53-6.6,0.42-9.9C255.38,134.76,253.64,133.98,252.33,133.55z"/>
		</g>
		<path fill="#FFF" d="M300.7,129.31c2.25-0.85,4.41-1.95,6.73-2.6c1.23,0.44,2.13,1.45,3.18,2.19c-0.58,0.8-1.22,1.56-1.92,2.28
			c-1.12-0.65-2.18-1.38-3.2-2.18c0.65,0.98,1.27,1.98,1.87,3c1.04,0.51,2.08,1.03,3.12,1.57c-1.1,0.48-2.2,0.95-3.31,1.39
			c0.04,5.02,0.07,10.05-0.02,15.08c-1.73-0.01-3.46-0.02-5.18-0.02c-0.02-5.02-0.08-10.05,0.06-15.06
			c-0.79-0.5-1.58-0.99-2.36-1.47c0.83-0.6,1.66-1.19,2.49-1.78C301.8,131.11,301.07,129.91,300.7,129.31z"/>
		<path fill="#FFF" d="M339.76,128.25c2.01-0.55,4.05-1.05,6.1-1.48c-0.02,2.28-0.04,4.56,0,6.85c1.27-0.99,2.5-2.02,3.75-3.04
			c2.96,2.86,5.46,6.68,5.31,10.95c-0.07,4.16-2.79,7.83-6.26,9.92c2.33-4.84,2.24-10.76-1.05-15.16c-0.42-0.07-1.26-0.21-1.68-0.27
			c-0.18,4.66-0.03,9.34-0.09,14.01c-1.66-0.02-3.31-0.03-4.96-0.03c-0.09-6.21,0.01-12.41-0.03-18.61
			C340.93,130.19,340.56,129.14,339.76,128.25z"/>
		<g>
			<path fill="#FFF" d="M378.89,127.35c2.15-0.18,4.3-0.42,6.46-0.59c-0.17,6.39,0.04,12.77-0.13,19.15
				c0.5,0.79,1,1.58,1.51,2.37c-1.08,0.93-2.16,1.85-3.24,2.78c-1.05-0.86-2.05-1.77-3.17-2.52c-1.39-0.08-2.08,1.47-3.09,2.15
				c-7.44-3.41-6.49-14.57-0.46-18.97c1.11-1.49,2.59-0.1,3.68,0.58C380.36,130.52,379.98,128.8,378.89,127.35z M377.29,133.71
				c-0.74,2.47-1.85,5.14-0.72,7.68c0.74,1.79,1.59,4.47,4.13,4.02c0.06-2.98-0.58-5.99,0.01-8.95
				C379.93,135.07,379.05,133.68,377.29,133.71z"/>
		</g>
		<path fill="#FFF" d="M402.05,132.46c1.76-0.32,3.49-0.77,5.2-1.31c0.3,4.82,0.14,9.86,2.17,14.35
			c1.83-3.79,0.35-8.28-0.19-12.26c0.19-0.23,0.57-0.68,0.76-0.91c1.4-0.2,2.8-0.42,4.21-0.64c0.89,4.81,1.06,9.83,3.34,14.28
			c2.81-3.48,2.51-9.51-1.95-11.51c1.05-1.03,2.1-2.06,3.14-3.1c3.2,1.38,4.68,5.48,3.64,8.71c-1.02,4.46-3.99,8.03-6.95,11.36
			c-2.1-1.34-2.85-3.8-3.87-5.92c-1.32,2.02-2.79,3.94-4.25,5.86C402.3,146.47,401.95,139.02,402.05,132.46z"/>
		<g>
			<path fill="#FFF" d="M219.64,139.45c-0.16-3.89,2.97-6.61,5.79-8.73c4.83,2.09,7.53,7.87,6.32,12.94
				c-0.92,2.92-3.37,4.92-5.38,7.08C221.85,149.14,218.93,144.2,219.64,139.45z M222.74,135.69c-0.45,4.1,1.89,7.71,4.78,10.37
				c0.4-0.25,1.21-0.74,1.61-0.98C228.44,141.34,226.88,136.7,222.74,135.69z"/>
		</g>
		<path fill="#FFF" d="M233.99,133.65c1.19-0.93,2.46-1.76,3.93-2.2c0.75,0.9,1.51,1.8,2.28,2.69c0.97-1.03,1.94-2.16,3.37-2.54
			c0.79,1.1,1.61,2.19,2.45,3.26c-1.07,1.19-2.17,2.36-3.3,3.49c-0.82-0.68-1.7-1.29-2.64-1.79c-0.31,4.47-0.09,8.96-0.16,13.44
			c-1.7,0.02-3.39,0.03-5.08,0.04C234.44,144.6,235.71,138.91,233.99,133.65z"/>
		<path fill="#FFF" d="M263.67,136.61c1.59-2.53,4.48-3.9,6.72-5.8c1.33,1.2,2.74,2.35,3.97,3.67c-0.48,1.31-1.67,2.18-2.88,2.75
			c-1.44-0.18-2.18-1.63-3.17-2.52c-0.04,0.43-0.14,1.3-0.19,1.73c2.51,1.77,4.53,4.12,6.96,5.98c1.44,4.34-3.63,6.05-6.44,7.98
			c-1.81-1.12-3.48-2.45-5.02-3.9c0.41-1.4,1.98-1.95,2.91-2.94c1.6,1.23,3.22,2.46,4.98,3.46
			C270.32,142.54,263.87,141.42,263.67,136.61z"/>
		<g>
			<path fill="#FFF" d="M286.54,138.43c0.48-3.47,3.32-5.79,5.93-7.77c3.47,2.11,6.33,5.64,6.47,9.84
				c0.41,4.46-3.02,7.93-6.19,10.54C288.56,148.41,285.38,143.53,286.54,138.43z M289.58,135.82c-0.25,4.12,1.99,7.8,5.03,10.4
				c0.33-0.39,0.98-1.17,1.31-1.56c-0.56-3.21-2.05-6.14-4.25-8.54C291.15,136.05,290.11,135.89,289.58,135.82z"/>
		</g>
		<g>
			<path fill="#FFF" d="M357.3,135.02c1.87-1.52,3.9-2.84,6.02-4c2.09,0.29,3.87,1.56,5.8,2.34c0.19,4.1,0.08,8.2,0.11,12.3
				c0.41,0.84,0.81,1.68,1.21,2.53c-1.09,0.76-2.15,1.54-3.21,2.33c-1.25-0.73-2.44-1.56-3.6-2.41c-1.1,0.88-2.2,1.75-3.29,2.63
				c-1.8-1.33-3.36-2.94-4.34-4.95c-0.41-4.6,3.11-7.64,6.9-9.36l0.36-1.25C361.27,135.15,359.28,135.13,357.3,135.02z
				 M361.06,141.07c-0.12,1.74,0.21,3.43,1.17,4.91c0.47-0.01,1.4-0.01,1.86-0.01c-0.01-2.53,0-5.05,0.01-7.58
				C362.48,138.51,361.75,139.81,361.06,141.07z"/>
		</g>
		<g>
			<path fill="#FFF" d="M392.56,131.62c2.15-1.86,4.02,1.14,5.42,2.48c4.42,5.15,2.25,13.49-3.64,16.45
				C386.7,147.78,385.46,135.82,392.56,131.62z M390.98,136.1c-0.2,4.11,2.15,8.14,5.72,10.16c1.17-3.37-0.74-6.69-2.81-9.23
				C393.2,136.08,392.12,135.48,390.98,136.1z"/>
		</g>
		<path fill="#FFF" d="M164.45,142.45c6.36-1.97,12.78-3.76,19.17-5.62c2.1,2.09,4.28,4.14,6.86,5.64
			c-2.47,1.33-4.74,3-6.85,4.84C177.23,145.72,170.85,144.05,164.45,142.45z"/>
		<path fill="#FFF" d="M428.18,141.59c2.69-1.05,4.55-3.73,7.22-4.57c6.15,1.3,12.18,3.17,18.32,4.54
			c-6.2,2.44-12.7,4.09-19.17,5.65C432.74,145.01,430.52,143.19,428.18,141.59z"/>
	</g>
	<g>
		<path fill="#FFF" d="M54.33,17.25c9.74-6.56,21.4-10.1,33.11-10.52c17.48-1.27,35.81,4,48.8,16.06
			c3.64,3.5,7.4,7.04,9.84,11.52c-11.24-9.89-25.65-16.49-40.68-17.32c-16.94-0.64-33.75,6.84-45.43,18.96
			C40.6,55.36,38.7,89.54,56.41,110.61c10.97,13.32,28.03,20.84,45.09,21.87c17.82,0.78,35.12-7.86,47.03-20.82
			c-5.02,10.02-13.51,18.21-23.26,23.66c-15.59,8.78-34.68,9.7-51.74,5.2c-15.62-4.07-29.51-13.89-38.95-26.94
			c-5.58-7.67-9.73-16.61-10.72-26.13c-6.33-3.57-11.99-8.17-18.14-12.01c5.75-4.37,12.07-7.93,18.05-11.98
			C28.23,45.24,38.6,27.86,54.33,17.25z"/>
		<path fill="#FFF" d="M395.4,35.67c3.44-1.77,5.78-4.95,8.06-7.96c1.85,3.46,5.59,5.62,7.8,8.48c-3.23,2.53-6.06,5.57-7.85,9.28
			C401.41,41.66,398.23,38.8,395.4,35.67z"/>
		<path fill="#FFF" d="M194.94,36.88c3.9-4.43,10.14-5.37,15.72-5.53c-0.49,0.33-1.47,1-1.96,1.34
			c-2.42,1.88-4.72,4.45-4.93,7.65c-0.31,4.38,0.07,8.78-0.24,13.16c0.36,14.01-0.07,28.03,0.12,42.05c0.18,2.9-0.56,6.12,0.91,8.78
			c1.78,1.84,4.37,1.22,6.59,0.83c-4.24,3.9-8.23,8.08-12.43,12.04c-2.89-3.8-5.69-7.78-9.54-10.68c-0.09-0.29-0.26-0.87-0.35-1.16
			c1.52-0.69,2.76-1.96,2.46-3.76c-0.02-16.03,0.05-32.07-0.03-48.1c0.06-6.26-3.36-11.69-6.69-16.71c0.31-0.07,0.94-0.2,1.26-0.26
			c1.59,3.13,3.29,6.21,4.78,9.4C191.61,42.74,192.51,39.32,194.94,36.88z"/>
		<path fill="#FFF" d="M154.5,67.75c10.81-6.78,14.24-20.05,17.41-31.59c0.86,8.22,0.2,16.52,0.35,24.77
			c3.48,0.11,6.96,0.05,10.44,0.13c-0.02,2.39-0.03,4.77-0.02,7.16c-3.49,0.11-6.97,0.08-10.45,0.08
			c-0.05,9.73-0.02,19.46-0.02,29.19c-0.13,1.82,0.51,3.52,1.12,5.2c2.36,0.86,4.84,0.68,7.23,0.03c-4.29,4.87-8.44,9.9-12.91,14.61
			c-2.02-3.8-4.83-7.08-7.83-10.13c-1.01-0.57-2.03-1.15-3.04-1.71c1.26-1.81,3.17-3.51,2.93-5.94c0.03-10.51-0.02-21.02,0.02-31.52
			C157.99,67.93,156.25,67.86,154.5,67.75z"/>
		<path fill="#FFF" d="M248.71,62.77c2.58-6.79,7.61-12.44,12.97-17.21c-0.13,2.45,0.62,5.19-0.83,7.38
			c-0.98,1.66-1.63,3.64-1.05,5.56c0.88,3.53,5.38,5.15,5.41,9.01c0.05,9.38,0.03,18.76-0.01,28.14c2.61,1.77,5.2,3.6,7.5,5.79
			c1.12,1.5,3.21,0.64,4.16-0.58c3.93-4.11,7.15-9.56,6.94-15.4c-1.53-9.89-7.34-18.31-11.26-27.3c8.9-2.47,17.66-5.69,26.74-7.36
			c-4.48,3.78-8.17,8.38-12.27,12.56c7.64,7.29,7.9,19.69,3.67,28.81c-4.98,9.69-14.25,16-22.22,23.03
			c-5.17-4.88-10.53-9.85-17.21-12.58c1-0.67,2.01-1.35,3.01-2.02c0.02-8.68,0.1-17.37-0.02-26.05
			C253.92,69.9,247.47,67.79,248.71,62.77z"/>
		<path fill="#FFF" d="M402.83,49.27c3.48,2.81,6.29,6.36,9.63,9.34c-0.83,1.67-2.88,2.77-2.7,4.88
			c-0.05,11.32-0.12,22.65,0.02,33.97c-0.33,3.13,3.32,3.64,5.66,3.42c-4.06,4.04-7.86,8.33-11.89,12.4
			c-3.1-3.65-6.75-7.67-6.72-12.76c-0.01-12.01-0.01-24.02,0.01-36.03c0.07-1.57-0.49-3.05-0.93-4.53
			c-0.63-0.29-1.88-0.89-2.51-1.19C396.61,55.67,399.77,52.52,402.83,49.27z"/>
		<g>
			<path fill="#FFF" d="M80.29,59.43c4.59-2.15,8.29-5.69,12.26-8.77l0.77,0.06c4.66,4.64,9.44,9.58,15.84,11.74
				c-2.11,1.34-3.29,3.55-3.98,5.87c0.05,9.74-0.01,19.47,0.01,29.2c-0.1,2.17,0.96,4.63,3.14,5.37c1.21-0.15,2.37-0.48,3.49-0.99
				c-3.64,4.25-8.09,7.77-11.31,12.39c-4.04-3.59-7.07-8.27-8.34-13.56c-4.96,4.49-9.61,9.31-14.57,13.8
				c-2.2-2.24-4.92-4.14-6.32-7.03c-1.99-6.02-0.76-12.45-1.25-18.65c-3.45-2.25-7.37-3.73-10.69-6.22
				c3.69-1.52,7.19-3.44,10.8-5.11c0.12-4.28-0.31-8.84,1.5-12.84C73.82,62.01,77.27,60.91,80.29,59.43z M82.74,64.46
				c0.1,12-0.07,24,0.07,35.99c-0.19,2.28,2.64,3.55,4.49,2.58c2.07-1.07,3.87-2.55,5.51-4.17c-0.31-10.5-0.03-21-0.14-31.49
				c-3-3-6.47-5.59-9.32-8.79C82.65,60.46,82.73,62.49,82.74,64.46z"/>
		</g>
		<g>
			<path fill="#FFF" d="M225.13,57.2c4.19-2.25,8.22-4.82,12.57-6.77c2.97,6.79,7.37,12.94,9.79,19.95
				c-7.1,5.44-13.66,11.57-20.74,17.04c1.56,6.09,5.14,12.79,11.87,14.13c3.22,1.1,6.13-1.1,8.9-2.4
				c-5.12,4.62-10.32,9.17-14.93,14.32c-0.97,1.67-2.76,0.44-3.97-0.2c-6.38-3.63-12.23-9.37-13.72-16.82
				c-0.74-2.94-0.57-6-0.51-9.01c-2.18-2.38-5.32-3.81-7.01-6.6c2.33-1.36,4.58-2.86,6.83-4.36c0.36-3.99,0.59-8.14,2.35-11.82
				C218.23,61.06,221.95,59.23,225.13,57.2z M226.93,57.35c-0.09,9.05-0.26,18.13,0.09,27.19c3.35-2.77,6.67-5.56,10.14-8.18
				c-2.46-6.75-5.82-13.14-8.45-19.83C228.27,56.73,227.37,57.14,226.93,57.35z"/>
		</g>
		<g>
			<path fill="#FFF" d="M320.5,50.03l0.97,0.1c4.79,5.16,10.24,10.28,17.17,12.31c-2.99,0.96-4.89,3.87-4.77,6.97
				c-0.04,9.35-0.01,18.69-0.01,28.04c-0.12,1.73,0.6,3.31,1.42,4.8c2.1,0.26,4.08-0.52,6.04-1.18c-3.01,3.4-6.54,6.3-9.4,9.83
				c-1.16,1.17-2.02,2.73-3.5,3.54c-3.07-2.53-5.8-5.68-7.16-9.47c-0.5-1.14-0.68-2.5-1.71-3.32c-4.42,4.48-9.13,8.66-13.28,13.4
				c-4.3-2.43-8.19-6.67-8.3-11.88c-0.39-7.54-0.07-15.1-0.17-22.64c0.1-5.39-0.44-10.97,1.41-16.15c2.04-1.82,4.33-3.34,6.87-4.36
				C311.58,57.82,316.07,53.86,320.5,50.03z M311.14,59.28c-0.12,14.01-0.23,28.04,0.05,42.04c2.64,3.81,6.46-0.34,8.87-2.2
				c0.06-10.76,0.19-21.53-0.08-32.29C316.57,64.88,314.09,61.79,311.14,59.28z"/>
		</g>
		<path fill="#FFF" d="M342.37,61.61c3.86-3.83,7.16-8.17,11.08-11.94c5.17,3.04,8,8.83,7.83,14.77
			c5.84-4.53,10.92-10.2,17.29-13.96c2.05,4.09,5.66,7.04,9,10.03c-2.58,1.82-4.17,4.76-3.9,7.97c0.14,9.33,0.19,18.67,0.16,28.01
			c0.21,1.56-0.18,3.46,1.05,4.66c1.15,1.42,3.14,0.62,4.69,0.82c-3.83,3.84-7.63,7.72-11.3,11.72c-4.21-3.85-8.03-9.22-7.51-15.21
			c0.03-10.32,0.01-20.64,0.03-30.96c0.1-1.5-0.42-2.89-0.99-4.23c-0.78-0.39-1.56-0.78-2.33-1.18c-2.22,1.61-4.3,3.4-6.33,5.25
			c0.14,10.75-0.02,21.52,0.06,32.27c-0.21,1.62,1.35,2.57,2.16,3.75c-4.15,2.02-6.38,6.19-8.8,9.88c-2.58-3.94-5.58-7.81-9.99-9.81
			c1.82-1.05,3.99-2.48,3.62-4.91c0.07-10.04,0.1-20.09-0.02-30.12C348.17,65.21,346.16,61.1,342.37,61.61z"/>
		<g>
			<path fill="#FFF" d="M432.59,57.61c3.51-2.07,6.27-5.14,9.73-7.25c4.5,4.96,9.51,9.77,15.92,12.12
				c-2.87,1.58-3.93,4.9-3.88,8.01c0.02,9.05-0.06,18.11,0.04,27.16c-0.06,1.94,0.96,3.61,2.03,5.15c1.32-0.03,2.64-0.06,3.98-0.09
				c-3.9,3.62-7.68,7.39-10.93,11.62c-2.72-2.91-5.55-5.94-6.96-9.73c-0.65-1.25-0.46-3.07-1.9-3.75
				c-4.09,4.74-8.95,8.76-13.15,13.39c-4.66-1.72-8.15-6.76-8.17-11.82c-0.14-9.97-0.03-19.95-0.05-29.92
				c0.23-3.17,0.09-7.05,2.83-9.24C425.27,60.82,429.31,59.9,432.59,57.61z M431.79,71.48c0.22,10.13-0.42,20.36,0.31,30.44
				c3.11,3.65,7.13-1.05,9.75-3.08c-0.14-10.57-0.12-21.14-0.02-31.71c-3.61-2.4-6.5-5.66-9.64-8.6
				C431.44,62.81,431.89,67.16,431.79,71.48z"/>
		</g>
		<path fill="#FFF" d="M142.59,58.11c3.89-0.47,6.42-3.75,8.75-6.55c-0.4,6.52-2.19,13.41-6.89,18.19c0,0-1.313,1.553-1.89,1.89
			c-6.455,3.771-14.44-2.07-18.24-8.09c-3.89,1.5-4.18,6.52-3.39,10.03c0.9,5.32,5.53,10.83,11.43,9.67
			c6.21-0.82,8.96-7.12,11.99-11.78c0.65,2,2.74,2.72,4.1,4.11c4.53,4.29,5.59,11.36,3.4,17.08c-3.45,9.44-9.93,17.42-16.88,24.54
			c-6.48-3.48-13.57-9.08-21.35-5.97c1.87-4.83,4.44-9.38,6-14.34c4.69,0.61,9.43,1.6,13.63,3.87c3.4,1.58,6.27,4.05,9.61,5.75
			c2.02-5.7,1.85-12.26-1.07-17.62c-1.85-3.23-5.71-5.48-9.46-4.4c-5.89,1.64-9.06,7.36-11.8,12.35c-0.2-0.54-0.58-1.63-0.77-2.17
			c-4.05-3.2-7.83-7.69-7.68-13.15c-0.31-7.77,5.6-13.7,10.94-18.52c3.42-2.85,5.97-6.51,8.31-10.25
			C133.87,56.24,138.16,58.84,142.59,58.11z"/>
		<path fill="#FFF" d="M322.07,130.1c2.2-2.65,5.61-3.91,8.65-5.35c2.42,0.78,4.15,2.99,6.63,3.75
			c-1.85,0.89-3.26,2.39-4.67,3.83c-2.01-1.39-4-2.81-6.11-4.01c-0.06,3.09,3.36,4.19,5.32,5.93c2.91,2.23,7.58,4.77,6.14,9.21
			c-2.51,3.24-6.18,5.34-9.43,7.76c-2.22-1.61-4.67-2.86-7.22-3.87c1.03-1.74,2.15-3.7,4.11-4.5c2.55,0.95,4.66,3.05,7.51,3.12
			c0.45-3.98-3.86-5.53-6.34-7.74C324.23,136.3,320.53,133.69,322.07,130.1z"/>
		<path fill="#FFF" d="M200.05,127.44c3.5-0.79,6.9-2.1,10.49-2.41c2.99-0.14,5.04,2.32,6.24,4.75c-1.91,0.54-3.74,1.3-5.51,2.21
			c-1.23-1.56-1.61-4.22-3.92-4.53c0.54,5.32,0.03,10.67,0.27,16c0.02,1.64-0.57,3.19-0.89,4.77c3.45-1.98,7.04-3.94,11.09-4.23
			c0.02,2.02,0.03,4.04,0.06,6.06c-6.28-0.07-12.57-0.06-18.85,0.03c2.86-3.23,1.9-7.68,2.05-11.6
			C200.86,134.81,201.75,130.87,200.05,127.44z"/>
		<g>
			<path fill="#FFF" d="M253.88,127.37c2.13-0.2,4.26-0.5,6.39-0.78c0.07,6-0.03,12.01,0.02,18.01c-0.13,1.4,0.66,2.62,1.09,3.9
				c-1,0.85-2.01,1.71-3,2.57c-1.2-0.99-2.39-1.98-3.56-2.99c-1.09,1.01-2.18,2.01-3.26,3.01c-6.43-4.66-6.01-14.71,0.08-19.45
				c1.02-1.6,2.54,0.15,3.52,0.82C255.18,130.66,254.81,128.92,253.88,127.37z M252.33,133.55c-1.96,3.6-1.59,7.98,0.83,11.25
				c0.4,0.39,1.2,1.16,1.59,1.55c0.73-3.25,0.53-6.6,0.42-9.9C255.38,134.76,253.64,133.98,252.33,133.55z"/>
		</g>
		<path fill="#FFF" d="M300.7,129.31c2.25-0.85,4.41-1.95,6.73-2.6c1.23,0.44,2.13,1.45,3.18,2.19c-0.58,0.8-1.22,1.56-1.92,2.28
			c-1.12-0.65-2.18-1.38-3.2-2.18c0.65,0.98,1.27,1.98,1.87,3c1.04,0.51,2.08,1.03,3.12,1.57c-1.1,0.48-2.2,0.95-3.31,1.39
			c0.04,5.02,0.07,10.05-0.02,15.08c-1.73-0.01-3.46-0.02-5.18-0.02c-0.02-5.02-0.08-10.05,0.06-15.06
			c-0.79-0.5-1.58-0.99-2.36-1.47c0.83-0.6,1.66-1.19,2.49-1.78C301.8,131.11,301.07,129.91,300.7,129.31z"/>
		<path fill="#FFF" d="M339.76,128.25c2.01-0.55,4.05-1.05,6.1-1.48c-0.02,2.28-0.04,4.56,0,6.85c1.27-0.99,2.5-2.02,3.75-3.04
			c2.96,2.86,5.46,6.68,5.31,10.95c-0.07,4.16-2.79,7.83-6.26,9.92c2.33-4.84,2.24-10.76-1.05-15.16c-0.42-0.07-1.26-0.21-1.68-0.27
			c-0.18,4.66-0.03,9.34-0.09,14.01c-1.66-0.02-3.31-0.03-4.96-0.03c-0.09-6.21,0.01-12.41-0.03-18.61
			C340.93,130.19,340.56,129.14,339.76,128.25z"/>
		<g>
			<path fill="#FFF" d="M378.89,127.35c2.15-0.18,4.3-0.42,6.46-0.59c-0.17,6.39,0.04,12.77-0.13,19.15
				c0.5,0.79,1,1.58,1.51,2.37c-1.08,0.93-2.16,1.85-3.24,2.78c-1.05-0.86-2.05-1.77-3.17-2.52c-1.39-0.08-2.08,1.47-3.09,2.15
				c-7.44-3.41-6.49-14.57-0.46-18.97c1.11-1.49,2.59-0.1,3.68,0.58C380.36,130.52,379.98,128.8,378.89,127.35z M377.29,133.71
				c-0.74,2.47-1.85,5.14-0.72,7.68c0.74,1.79,1.59,4.47,4.13,4.02c0.06-2.98-0.58-5.99,0.01-8.95
				C379.93,135.07,379.05,133.68,377.29,133.71z"/>
		</g>
		<path fill="#FFF" d="M402.05,132.46c1.76-0.32,3.49-0.77,5.2-1.31c0.3,4.82,0.14,9.86,2.17,14.35
			c1.83-3.79,0.35-8.28-0.19-12.26c0.19-0.23,0.57-0.68,0.76-0.91c1.4-0.2,2.8-0.42,4.21-0.64c0.89,4.81,1.06,9.83,3.34,14.28
			c2.81-3.48,2.51-9.51-1.95-11.51c1.05-1.03,2.1-2.06,3.14-3.1c3.2,1.38,4.68,5.48,3.64,8.71c-1.02,4.46-3.99,8.03-6.95,11.36
			c-2.1-1.34-2.85-3.8-3.87-5.92c-1.32,2.02-2.79,3.94-4.25,5.86C402.3,146.47,401.95,139.02,402.05,132.46z"/>
		<g>
			<path fill="#FFF" d="M219.64,139.45c-0.16-3.89,2.97-6.61,5.79-8.73c4.83,2.09,7.53,7.87,6.32,12.94
				c-0.92,2.92-3.37,4.92-5.38,7.08C221.85,149.14,218.93,144.2,219.64,139.45z M222.74,135.69c-0.45,4.1,1.89,7.71,4.78,10.37
				c0.4-0.25,1.21-0.74,1.61-0.98C228.44,141.34,226.88,136.7,222.74,135.69z"/>
		</g>
		<path fill="#FFF" d="M233.99,133.65c1.19-0.93,2.46-1.76,3.93-2.2c0.75,0.9,1.51,1.8,2.28,2.69c0.97-1.03,1.94-2.16,3.37-2.54
			c0.79,1.1,1.61,2.19,2.45,3.26c-1.07,1.19-2.17,2.36-3.3,3.49c-0.82-0.68-1.7-1.29-2.64-1.79c-0.31,4.47-0.09,8.96-0.16,13.44
			c-1.7,0.02-3.39,0.03-5.08,0.04C234.44,144.6,235.71,138.91,233.99,133.65z"/>
		<path fill="#FFF" d="M263.67,136.61c1.59-2.53,4.48-3.9,6.72-5.8c1.33,1.2,2.74,2.35,3.97,3.67c-0.48,1.31-1.67,2.18-2.88,2.75
			c-1.44-0.18-2.18-1.63-3.17-2.52c-0.04,0.43-0.14,1.3-0.19,1.73c2.51,1.77,4.53,4.12,6.96,5.98c1.44,4.34-3.63,6.05-6.44,7.98
			c-1.81-1.12-3.48-2.45-5.02-3.9c0.41-1.4,1.98-1.95,2.91-2.94c1.6,1.23,3.22,2.46,4.98,3.46
			C270.32,142.54,263.87,141.42,263.67,136.61z"/>
		<g>
			<path fill="#FFF" d="M286.54,138.43c0.48-3.47,3.32-5.79,5.93-7.77c3.47,2.11,6.33,5.64,6.47,9.84
				c0.41,4.46-3.02,7.93-6.19,10.54C288.56,148.41,285.38,143.53,286.54,138.43z M289.58,135.82c-0.25,4.12,1.99,7.8,5.03,10.4
				c0.33-0.39,0.98-1.17,1.31-1.56c-0.56-3.21-2.05-6.14-4.25-8.54C291.15,136.05,290.11,135.89,289.58,135.82z"/>
		</g>
		<g>
			<path fill="#FFF" d="M357.3,135.02c1.87-1.52,3.9-2.84,6.02-4c2.09,0.29,3.87,1.56,5.8,2.34c0.19,4.1,0.08,8.2,0.11,12.3
				c0.41,0.84,0.81,1.68,1.21,2.53c-1.09,0.76-2.15,1.54-3.21,2.33c-1.25-0.73-2.44-1.56-3.6-2.41c-1.1,0.88-2.2,1.75-3.29,2.63
				c-1.8-1.33-3.36-2.94-4.34-4.95c-0.41-4.6,3.11-7.64,6.9-9.36l0.36-1.25C361.27,135.15,359.28,135.13,357.3,135.02z
				 M361.06,141.07c-0.12,1.74,0.21,3.43,1.17,4.91c0.47-0.01,1.4-0.01,1.86-0.01c-0.01-2.53,0-5.05,0.01-7.58
				C362.48,138.51,361.75,139.81,361.06,141.07z"/>
		</g>
		<g>
			<path fill="#FFF" d="M392.56,131.62c2.15-1.86,4.02,1.14,5.42,2.48c4.42,5.15,2.25,13.49-3.64,16.45
				C386.7,147.78,385.46,135.82,392.56,131.62z M390.98,136.1c-0.2,4.11,2.15,8.14,5.72,10.16c1.17-3.37-0.74-6.69-2.81-9.23
				C393.2,136.08,392.12,135.48,390.98,136.1z"/>
		</g>
		<path fill="#FFF" d="M164.45,142.45c6.36-1.97,12.78-3.76,19.17-5.62c2.1,2.09,4.28,4.14,6.86,5.64
			c-2.47,1.33-4.74,3-6.85,4.84C177.23,145.72,170.85,144.05,164.45,142.45z"/>
		<path fill="#FFF" d="M428.18,141.59c2.69-1.05,4.55-3.73,7.22-4.57c6.15,1.3,12.18,3.17,18.32,4.54
			c-6.2,2.44-12.7,4.09-19.17,5.65C432.74,145.01,430.52,143.19,428.18,141.59z"/>
	</g>
</g>
</svg>
